<svg xmlns="http://www.w3.org/2000/svg" fill="none" viewBox="0 0 32 32" height="32" width="32">
  <g id="Search">
    <path id="Union" fill="#000000" d="M14.666666666666666 2.6666666666666665c6.627466666666667 0 12 5.372586666666667 12 12 0 2.833333333333333 -0.9841333333333333 5.435466666666667 -2.6262666666666665 7.488266666666666l5.568933333333334 5.569066666666666 -1.885333333333333 1.885333333333333 -5.569066666666666 -5.568933333333334C20.10213333333333 25.682533333333332 17.5 26.666666666666664 14.666666666666666 26.666666666666664c-6.627413333333333 0 -12 -5.372533333333333 -12 -12 0 -6.627413333333333 5.372586666666667 -12 12 -12m0 2.6666666666666665c-5.154653333333333 0 -9.333333333333332 4.17868 -9.333333333333332 9.333333333333332 0 5.1546666666666665 4.17868 9.333333333333332 9.333333333333332 9.333333333333332 5.1546666666666665 0 9.333333333333332 -4.1786666666666665 9.333333333333332 -9.333333333333332 0 -5.154653333333333 -4.1786666666666665 -9.333333333333332 -9.333333333333332 -9.333333333333332" stroke-width="1.3333"></path>
  </g>
</svg>